<svg version="1.2" xmlns="http://www.w3.org/2000/svg" viewBox="0 0 299 128" width="299" height="128">
	<title>logo-svg</title>
	<defs>
		<clipPath clipPathUnits="userSpaceOnUse" id="cp1">
			<path d="m212.88 7.18h84v84h-84z"/>
		</clipPath>
	</defs>
	<style>
		.s0 { fill: #f8f4f0 } 
	</style>
	<path id="Layer" class="s0" d="m262.5 49.2q0 0.8-0.1 1.5-0.2 0.7-0.5 1.4-0.2 0.7-0.7 1.3-0.4 0.7-0.9 1.2-0.5 0.5-1.2 0.9-0.6 0.5-1.3 0.7-0.7 0.3-1.4 0.5-0.7 0.1-1.5 0.1-0.7 0-1.5-0.1-0.7-0.2-1.4-0.5-0.7-0.2-1.3-0.7-0.6-0.4-1.2-0.9-0.5-0.5-0.9-1.2-0.4-0.6-0.7-1.3-0.3-0.7-0.5-1.4-0.1-0.7-0.1-1.5 0-0.7 0.1-1.5 0.2-0.7 0.5-1.4 0.3-0.7 0.7-1.3 0.4-0.6 0.9-1.2 0.6-0.5 1.2-0.9 0.6-0.4 1.3-0.7 0.7-0.3 1.4-0.5 0.8-0.1 1.5-0.1 0.8 0 1.5 0.1 0.7 0.2 1.4 0.5 0.7 0.3 1.3 0.7 0.7 0.4 1.2 0.9 0.5 0.6 0.9 1.2 0.5 0.6 0.7 1.3 0.3 0.7 0.5 1.4 0.1 0.8 0.1 1.5z"/>
	<g id="Clip-Path" clip-path="url(#cp1)">
		<g id="Layer">
			<path id="Layer" fill-rule="evenodd" class="s0" d="m296.9 49.2c0 23.2-18.8 42-42 42-23.2 0-42-18.8-42-42 0-23.2 18.8-42 42-42 23.2 0 42 18.8 42 42zm-59.4 0c0 9.6 7.8 17.4 17.4 17.4 9.6 0 17.4-7.8 17.4-17.4 0-9.6-7.8-17.4-17.4-17.4-9.6 0-17.4 7.8-17.4 17.4zm35.7-20.8c2.9 2.6 5.3 5.8 7 9.4 1.5 3.5 2.4 7.3 2.4 11.4 0 4.1-0.9 8-2.4 11.4-1.7 3.7-4.1 6.9-7 9.5-0.3 0.2-0.4 0.7-0.1 1 0.3 0.3 0.8 0.3 1.1 0.1 3.1-2.8 5.6-6.1 7.3-9.9 1.7-3.7 2.6-7.8 2.6-12.1 0-4.3-0.9-8.4-2.6-12-1.7-3.8-4.2-7.2-7.3-10-0.3-0.2-0.8-0.2-1.1 0.1-0.3 0.3-0.2 0.8 0.1 1.1zm-43.5 32.2c-1.6-3.4-2.5-7.3-2.5-11.4 0-4.1 0.9-7.9 2.5-11.4 1.6-3.6 4-6.8 6.9-9.4 0.4-0.3 0.4-0.8 0.1-1.1-0.3-0.3-0.7-0.3-1-0.1-3.2 2.8-5.7 6.2-7.4 10-1.7 3.6-2.6 7.7-2.6 12 0 4.3 0.9 8.4 2.6 12.1 1.7 3.8 4.2 7.1 7.4 9.9 0.3 0.2 0.7 0.2 1-0.1 0.3-0.3 0.3-0.8-0.1-1-2.9-2.6-5.3-5.8-6.9-9.5zm52.8-32.3c2.3 2.9 4.1 6.3 5.3 9.9 1.1 3.4 1.8 7.1 1.8 11 0 3.9-0.7 7.6-1.8 11.1-1.2 3.6-3 6.9-5.3 9.9-0.2 0.3-0.2 0.8 0.2 1 0.3 0.3 0.8 0.2 1-0.1 2.4-3.1 4.2-6.6 5.5-10.4 1.2-3.6 1.9-7.5 1.9-11.5 0-4-0.7-7.9-1.9-11.5-1.3-3.8-3.1-7.2-5.5-10.3-0.2-0.4-0.7-0.4-1-0.2-0.4 0.3-0.4 0.7-0.2 1.1zm-60.4 32c-1.2-3.5-1.8-7.2-1.8-11.1 0-3.9 0.6-7.6 1.8-11 1.2-3.6 3-7 5.2-9.9 0.3-0.4 0.2-0.8-0.1-1.1-0.4-0.2-0.8-0.2-1.1 0.2-2.3 3.1-4.2 6.5-5.5 10.3-1.2 3.6-1.8 7.5-1.8 11.5 0 4 0.6 7.9 1.8 11.5 1.3 3.8 3.2 7.3 5.5 10.4 0.3 0.3 0.7 0.4 1.1 0.1 0.3-0.2 0.4-0.7 0.1-1-2.2-3-4-6.3-5.2-9.9z"/>
		</g>
	</g>
	<g id="Layer">
		<g id="Layer">
			<g id="Layer">
				<path id="Layer" class="s0" d="m6.7 85.4v-76.7h23.4l6.4 46.7 6.5-46.7h23.5v76.7h-14v-55.3l-8.8 55.3h-13.8l-9.3-55.3v55.3z"/>
			</g>
		</g>
	</g>
	<g id="Layer">
		<g id="Layer">
			<g id="Layer">
				<path id="Layer" class="s0" d="m90.1 86.1q-9.4 0-14-5.4-4.6-5.3-4.6-15.9v-56.1h14.9v55.5q0 3.7 0.7 5.7 0.7 2.1 3 2.1 2.3 0 3.1-2 0.7-2 0.7-5.8v-55.5h14.9v56.1q0 10.6-4.6 15.9-4.6 5.4-14.1 5.4z"/>
			</g>
		</g>
	</g>
	<g id="Layer">
		<g id="Layer">
			<g id="Layer">
				<path id="Layer" class="s0" d="m131.9 86.1q-10.4 0-15.1-5.2-4.6-5.2-4.6-16.7v-7.5h15.1v9.6q0 5.7 3.6 5.7 2.1 0 2.9-1.2 0.8-1.2 0.8-4.1 0-3.7-0.9-6.2-0.9-2.5-2.3-4.1-1.4-1.7-4.9-5.1l-6.6-6.7q-7.7-7.5-7.7-16.6 0-9.8 4.5-14.9 4.5-5.2 13.2-5.2 10.3 0 14.9 5.5 4.5 5.5 4.5 17.2h-15.6l-0.1-5.2q0-1.6-0.8-2.5-0.9-0.8-2.4-0.8-1.8 0-2.7 0.9-0.9 1-0.9 2.7 0 3.8 4.3 7.8l8.9 8.6q3.2 3 5.2 5.7 2.1 2.7 3.3 6.4 1.3 3.7 1.3 8.8 0 11.4-4.2 17.2-4.1 5.9-13.7 5.9z"/>
			</g>
		</g>
	</g>
	<g id="Layer">
		<g id="Layer">
			<g id="Layer">
				<path id="Layer" class="s0" d="m153.2 85.4v-76.7h14.8v76.7z"/>
			</g>
		</g>
	</g>
	<g id="Layer">
		<g id="Layer">
			<g id="Layer">
				<path id="Layer" class="s0" d="m191 86.1q-8.4 0-13.4-5.3-5.1-5.3-5.1-14.5v-35.3q0-11.4 4.6-17.2 4.5-5.9 14.3-5.9 8.5 0 13.6 4.7 5.2 4.6 5.2 13.4v13.2h-15.2v-11.3q0-3.3-0.8-4.6-0.8-1.2-2.8-1.2-2.1 0-2.8 1.4-0.8 1.4-0.8 4.2v38.5q0 3 0.9 4.4 0.9 1.4 2.7 1.4 3.6 0 3.6-5.8v-13.9h15.4v14.5q0 19.3-19.4 19.3z"/>
			</g>
		</g>
	</g>
	<g id="Layer">
		<g id="Layer">
			<g id="Layer">
				<path id="Layer" class="s0" d="m39.5 125.1c5.4 0 8.9-2.6 8.9-6.9 0-3.6-2.4-5.8-8.7-7.4-4.8-1.1-6.4-2.4-6.4-4.4 0-2.4 2.1-3.9 5.7-3.9 3.6 0 5.8 1.9 5.9 4.8h3.1c-0.1-4.8-3.5-7.7-9-7.7-5.4 0-8.8 2.6-8.8 6.8 0 3.8 2.7 5.9 8.7 7.3 4.4 1.1 6.3 2.3 6.3 4.6 0 2.4-2.2 3.9-5.7 3.9-3.8 0-6.5-1.9-6.5-5.1h-3.1c0 4.8 3.8 8 9.6 8z"/>
			</g>
		</g>
	</g>
	<g id="Layer">
		<g id="Layer">
			<g id="Layer">
				<path id="Layer" fill-rule="evenodd" class="s0" d="m72.4 100.1h8.3c5.6 0 9.2 3.2 9.2 8.2 0 5.1-3.6 8.3-9.2 8.3h-5.2v8.1h-3.1zm8.3 13.6c3.9 0 6-1.8 6-5.3 0-3.5-2.1-5.4-6-5.4h-5.2v10.7z"/>
			</g>
		</g>
	</g>
	<g id="Layer">
		<g id="Layer">
			<g id="Layer">
				<path id="Layer" class="s0" d="m129.3 124.7h3.1v-24.6h-3.1v10.5h-13v-10.5h-3.1v24.6h3.1v-11.1h13z"/>
			</g>
		</g>
	</g>
	<g id="Layer">
		<g id="Layer">
			<g id="Layer">
				<path id="Layer" class="s0" d="m157.9 124.7h15.3v-2.9h-12.2v-8.2h10.9v-2.9h-10.9v-7.8h11.8v-2.8h-14.9z"/>
			</g>
		</g>
	</g>
	<g id="Layer">
		<g id="Layer">
			<g id="Layer">
				<path id="Layer" fill-rule="evenodd" class="s0" d="m197.4 100.1h9.4c5.1 0 8.4 3 8.4 7.9 0 3.9-2.2 6.7-5.8 7.5l6.2 9.2h-3.7l-6-8.9h-5.4v8.9h-3.1zm9 12.8c3.6 0 5.7-1.8 5.7-4.9 0-3.1-2.1-5-5.7-5h-5.9v9.9z"/>
			</g>
		</g>
	</g>
	<g id="Layer">
		<g id="Layer">
			<g id="Layer">
				<path id="Layer" class="s0" d="m239.6 124.7h15.3v-2.9h-12.2v-8.2h11v-2.9h-11v-7.8h11.9v-2.8h-15z"/>
			</g>
		</g>
	</g>
</svg>